<svg xmlns="http://www.w3.org/2000/svg" viewBox="0 0 24 24"><defs><style>.b{fill:#e7c930}</style></defs><rect x="1" y="1" width="22" height="22" rx="7.656" style="fill:#f8de40"/><path class="b" d="M23 13.938a14.69 14.69 0 0 1-12.406 6.531c-5.542 0-6.563-1-9.142-2.529A7.66 7.66 0 0 0 8.656 23h6.688A7.656 7.656 0 0 0 23 15.344z"/><path d="M21.554 5.693c-.063-.289-2.888-.829-4.871-.829a5.584 5.584 0 0 0-3.3.7A3.125 3.125 0 0 1 12 5.919a3.125 3.125 0 0 1-1.381-.352 5.584 5.584 0 0 0-3.3-.7c-1.983 0-4.808.54-4.871.829s-.113 1.217.088 1.381.439.025.477.6.477 2.976 1.808 3.767 3.741.163 4.6-.365A4.3 4.3 0 0 0 11.3 8.568c.138-.892.351-1.507.7-1.507s.565.615.7 1.507a4.3 4.3 0 0 0 1.883 2.51c.854.528 3.264 1.155 4.6.365s1.77-3.189 1.808-3.767.276-.439.477-.6.149-1.095.086-1.383z" style="fill:#101820"/><path d="M7.3 15.353s3.75-2.125 6.625-2.312 3.906.219 2.656.5-2.906-.156-5.484.734-4.528 1.61-3.797 1.078z" style="fill:#864e20"/><path class="b" d="M13.585 14.614c-1.384-.09-3.474 1.357-3.474 1.357-.427.379.6-.052 1.954-.572s2.066-.015 2.7-.141.205-.558-1.18-.644z"/></svg>